<svg xmlns="http://www.w3.org/2000/svg" width="3020" height="1900" viewBox="0 0 3020 1900" style="font-family:Arial,sans-serif;background:white"><rect x="0" y="0" width="3020" height="1900" fill="white"/><rect x="20" y="20" width="1470" height="920" fill="#fcfefd" stroke="#86a99a" stroke-width="2" stroke-dasharray="8 5"/><text x="42" y="58" font-size="25" font-weight="700" fill="#24463a">Accounts and Clinical Information</text><rect x="1530" y="20" width="1470" height="920" fill="#fcfefd" stroke="#86a99a" stroke-width="2" stroke-dasharray="8 5"/><text x="1552" y="58" font-size="25" font-weight="700" fill="#24463a">Drafts and Supporting Evidence</text><rect x="20" y="980" width="1470" height="900" fill="#fcfefd" stroke="#86a99a" stroke-width="2" stroke-dasharray="8 5"/><text x="42" y="1018" font-size="25" font-weight="700" fill="#24463a">Physician Review and Memory</text><rect x="1530" y="980" width="1470" height="900" fill="#fcfefd" stroke="#86a99a" stroke-width="2" stroke-dasharray="8 5"/><text x="1552" y="1018" font-size="25" font-weight="700" fill="#24463a">Comparative Evaluation</text><path d="M130,294 L130,460 L300.5,460 M434.5,460 L605,460 L605,294" fill="none" stroke="#647f73" stroke-width="1.6"/><text x="138" y="312" font-size="14" fill="#324e42">1</text><text x="613" y="312" font-size="14" fill="#324e42">0..N</text><path d="M605,294 L605,506 L775.5,506 M909.5,506 L1080,506 L1080,294" fill="none" stroke="#647f73" stroke-width="1.6"/><text x="613" y="312" font-size="14" fill="#324e42">1</text><text x="1088" y="312" font-size="14" fill="#324e42">0..N</text><path d="M1080,294 L1080,495.0 L538.0,495.0 M672.0,495.0 L130,495.0 L130,646" fill="none" stroke="#647f73" stroke-width="1.6"/><text x="1088" y="312" font-size="14" fill="#324e42">1</text><text x="138" y="636" font-size="14" fill="#324e42">0..N</text><path d="M130,694 L130,906 L300.5,906 M434.5,906 L605,906 L605,694" fill="none" stroke="#647f73" stroke-width="1.6"/><text x="138" y="712" font-size="14" fill="#324e42">1</text><text x="613" y="712" font-size="14" fill="#324e42">1..N</text><path d="M605,694 L605,860 L775.5,860 M909.5,860 L1080,860 L1080,694" fill="none" stroke="#647f73" stroke-width="1.6"/><text x="613" y="712" font-size="14" fill="#324e42">1</text><text x="1088" y="712" font-size="14" fill="#324e42">0..N</text><path d="M1080,246 L1080,110 L1443,110 M1577,110 L1640,110 L1640,246" fill="none" stroke="#647f73" stroke-width="1.6"/><text x="1088" y="236" font-size="14" fill="#324e42">1</text><text x="1648" y="236" font-size="14" fill="#324e42">0..N</text><path d="M1640,294 L1640,460 L1810.5,460 M1944.5,460 L2115,460 L2115,294" fill="none" stroke="#647f73" stroke-width="1.6"/><text x="1648" y="312" font-size="14" fill="#324e42">1</text><text x="2123" y="312" font-size="14" fill="#324e42">1..N</text><path d="M2115,294 L2115,506 L2285.5,506 M2419.5,506 L2590,506 L2590,294" fill="none" stroke="#647f73" stroke-width="1.6"/><text x="2123" y="312" font-size="14" fill="#324e42">1</text><text x="2598" y="312" font-size="14" fill="#324e42">0..N</text><path d="M605,646 L605,450 L1443,450 M1577,450 L2590,450 L2590,294" fill="none" stroke="#647f73" stroke-width="1.6"/><text x="613" y="636" font-size="14" fill="#324e42">1</text><text x="2598" y="312" font-size="14" fill="#324e42">0..N</text><path d="M2115,294 L2115,531.0 L1810.5,531.0 M1944.5,531.0 L1640,531.0 L1640,646" fill="none" stroke="#647f73" stroke-width="1.6"/><text x="2123" y="312" font-size="14" fill="#324e42">1</text><text x="1648" y="636" font-size="14" fill="#324e42">0..N</text><path d="M2115,294 L2115,840 L2285.5,840 M2419.5,840 L2590,840 L2590,694" fill="none" stroke="#647f73" stroke-width="1.6"/><text x="2123" y="312" font-size="14" fill="#324e42">1</text><text x="2598" y="712" font-size="14" fill="#324e42">0..N</text><path d="M2115,694 L2115,906 L2285.5,906 M2419.5,906 L2590,906 L2590,694" fill="none" stroke="#647f73" stroke-width="1.6"/><text x="2123" y="712" font-size="14" fill="#324e42">1</text><text x="2598" y="712" font-size="14" fill="#324e42">0..N</text><path d="M130,294 L130,950 L63.0,950 M197.0,950 L130,950 L130,1346" fill="none" stroke="#647f73" stroke-width="1.6"/><text x="138" y="312" font-size="14" fill="#324e42">1</text><text x="138" y="1336" font-size="14" fill="#324e42">0..N</text><path d="M2115,294 L2115,1100 L1443,1100 M1577,1100 L130,1100 L130,1346" fill="none" stroke="#647f73" stroke-width="1.6"/><text x="2123" y="312" font-size="14" fill="#324e42">1</text><text x="138" y="1336" font-size="14" fill="#324e42">0..N</text><path d="M130,1394 L130,1560 L300.5,1560 M434.5,1560 L605,1560 L605,1394" fill="none" stroke="#647f73" stroke-width="1.6"/><text x="138" y="1412" font-size="14" fill="#324e42">1</text><text x="613" y="1412" font-size="14" fill="#324e42">0..1</text><path d="M2115,294 L2115,1180 L1443,1180 M1577,1180 L605,1180 L605,1346" fill="none" stroke="#647f73" stroke-width="1.6"/><text x="2123" y="312" font-size="14" fill="#324e42">1</text><text x="613" y="1336" font-size="14" fill="#324e42">0..1</text><path d="M605,694 L605,950 L775.5,950 M909.5,950 L1080,950 L1080,1346" fill="none" stroke="#647f73" stroke-width="1.6"/><text x="613" y="712" font-size="14" fill="#324e42">0..1</text><text x="1088" y="1336" font-size="14" fill="#324e42">0..N</text><path d="M605,1394 L605,1606 L775.5,1606 M909.5,1606 L1080,1606 L1080,1394" fill="none" stroke="#647f73" stroke-width="1.6"/><text x="613" y="1412" font-size="14" fill="#324e42">0..1</text><text x="1088" y="1412" font-size="14" fill="#324e42">0..N</text><path d="M1080,294 L1080,900 L1443,900 M1577,900 L1640,900 L1640,1346" fill="none" stroke="#647f73" stroke-width="1.6"/><text x="1088" y="312" font-size="14" fill="#324e42">1</text><text x="1648" y="1336" font-size="14" fill="#324e42">0..N</text><path d="M1640,1394 L1640,1606 L2048.0,1606 M2182.0,1606 L2590,1606 L2590,1394" fill="none" stroke="#647f73" stroke-width="1.6"/><text x="1648" y="1412" font-size="14" fill="#324e42">1</text><text x="2598" y="1412" font-size="14" fill="#324e42">0..N</text><path d="M2115,1394 L2115,1560 L2285.5,1560 M2419.5,1560 L2590,1560 L2590,1394" fill="none" stroke="#647f73" stroke-width="1.6"/><text x="2123" y="1412" font-size="14" fill="#324e42">1</text><text x="2598" y="1412" font-size="14" fill="#324e42">0..N</text><polygon points="299.5,460 367.5,434 435.5,460 367.5,486" fill="#f1d8ad" stroke="#b68b46" stroke-width="1.8"/><text x="367.5" y="464" text-anchor="middle" font-size="13" fill="#573f1e">owns</text><polygon points="774.5,506 842.5,480 910.5,506 842.5,532" fill="#f1d8ad" stroke="#b68b46" stroke-width="1.8"/><text x="842.5" y="510" text-anchor="middle" font-size="13" fill="#573f1e">has</text><polygon points="537.0,495.0 605.0,469.0 673.0,495.0 605.0,521.0" fill="#f1d8ad" stroke="#b68b46" stroke-width="1.8"/><text x="605.0" y="499.0" text-anchor="middle" font-size="13" fill="#573f1e">contains</text><polygon points="299.5,906 367.5,880 435.5,906 367.5,932" fill="#f1d8ad" stroke="#b68b46" stroke-width="1.8"/><text x="367.5" y="910" text-anchor="middle" font-size="13" fill="#573f1e">versions</text><polygon points="774.5,860 842.5,834 910.5,860 842.5,886" fill="#f1d8ad" stroke="#b68b46" stroke-width="1.8"/><text x="842.5" y="864" text-anchor="middle" font-size="13" fill="#573f1e">analysed by</text><polygon points="1442,110 1510,84 1578,110 1510,136" fill="#f1d8ad" stroke="#b68b46" stroke-width="1.8"/><text x="1510" y="114" text-anchor="middle" font-size="13" fill="#573f1e">produces</text><polygon points="1809.5,460 1877.5,434 1945.5,460 1877.5,486" fill="#f1d8ad" stroke="#b68b46" stroke-width="1.8"/><text x="1877.5" y="464" text-anchor="middle" font-size="13" fill="#573f1e">versions</text><polygon points="2284.5,506 2352.5,480 2420.5,506 2352.5,532" fill="#f1d8ad" stroke="#b68b46" stroke-width="1.8"/><text x="2352.5" y="510" text-anchor="middle" font-size="13" fill="#573f1e">uses</text><polygon points="1442,450 1510,424 1578,450 1510,476" fill="#f1d8ad" stroke="#b68b46" stroke-width="1.8"/><text x="1510" y="454" text-anchor="middle" font-size="13" fill="#573f1e">supplies</text><polygon points="1809.5,531.0 1877.5,505.0 1945.5,531.0 1877.5,557.0" fill="#f1d8ad" stroke="#b68b46" stroke-width="1.8"/><text x="1877.5" y="535.0" text-anchor="middle" font-size="13" fill="#573f1e">assessed by</text><polygon points="2284.5,840 2352.5,814 2420.5,840 2352.5,866" fill="#f1d8ad" stroke="#b68b46" stroke-width="1.8"/><text x="2352.5" y="844" text-anchor="middle" font-size="13" fill="#573f1e">supports</text><polygon points="2284.5,906 2352.5,880 2420.5,906 2352.5,932" fill="#f1d8ad" stroke="#b68b46" stroke-width="1.8"/><text x="2352.5" y="910" text-anchor="middle" font-size="13" fill="#573f1e">linked by</text><polygon points="62.0,950 130.0,924 198.0,950 130.0,976" fill="#f1d8ad" stroke="#b68b46" stroke-width="1.8"/><text x="130.0" y="954" text-anchor="middle" font-size="13" fill="#573f1e">performs</text><polygon points="1442,1100 1510,1074 1578,1100 1510,1126" fill="#f1d8ad" stroke="#b68b46" stroke-width="1.8"/><text x="1510" y="1104" text-anchor="middle" font-size="13" fill="#573f1e">reviewed in</text><polygon points="299.5,1560 367.5,1534 435.5,1560 367.5,1586" fill="#f1d8ad" stroke="#b68b46" stroke-width="1.8"/><text x="367.5" y="1564" text-anchor="middle" font-size="13" fill="#573f1e">authorises</text><polygon points="1442,1180 1510,1154 1578,1180 1510,1206" fill="#f1d8ad" stroke="#b68b46" stroke-width="1.8"/><text x="1510" y="1184" text-anchor="middle" font-size="13" fill="#573f1e">accepted as</text><polygon points="774.5,950 842.5,924 910.5,950 842.5,976" fill="#f1d8ad" stroke="#b68b46" stroke-width="1.8"/><text x="842.5" y="954" text-anchor="middle" font-size="13" fill="#573f1e">represented by</text><polygon points="774.5,1606 842.5,1580 910.5,1606 842.5,1632" fill="#f1d8ad" stroke="#b68b46" stroke-width="1.8"/><text x="842.5" y="1610" text-anchor="middle" font-size="13" fill="#573f1e">represented by</text><polygon points="1442,900 1510,874 1578,900 1510,926" fill="#f1d8ad" stroke="#b68b46" stroke-width="1.8"/><text x="1510" y="904" text-anchor="middle" font-size="13" fill="#573f1e">provides</text><polygon points="2047.0,1606 2115.0,1580 2183.0,1606 2115.0,1632" fill="#f1d8ad" stroke="#b68b46" stroke-width="1.8"/><text x="2115.0" y="1610" text-anchor="middle" font-size="13" fill="#573f1e">evaluated in</text><polygon points="2284.5,1560 2352.5,1534 2420.5,1560 2352.5,1586" fill="#f1d8ad" stroke="#b68b46" stroke-width="1.8"/><text x="2352.5" y="1564" text-anchor="middle" font-size="13" fill="#573f1e">records</text><rect x="47" y="246" width="166" height="48" rx="1" fill="#5c95cd" stroke="#3979b3" stroke-width="2"/><text x="130" y="275" text-anchor="middle" font-size="16" font-weight="600" fill="white">Physician</text><rect x="522" y="246" width="166" height="48" rx="1" fill="#5c95cd" stroke="#3979b3" stroke-width="2"/><text x="605" y="275" text-anchor="middle" font-size="16" font-weight="600" fill="white">Patient</text><rect x="997" y="246" width="166" height="48" rx="1" fill="#5c95cd" stroke="#3979b3" stroke-width="2"/><text x="1080" y="275" text-anchor="middle" font-size="16" font-weight="600" fill="white">Encounter</text><rect x="47" y="646" width="166" height="48" rx="1" fill="#5c95cd" stroke="#3979b3" stroke-width="2"/><text x="130" y="675" text-anchor="middle" font-size="16" font-weight="600" fill="white">ClinicalInput</text><rect x="522" y="646" width="166" height="48" rx="1" fill="#5c95cd" stroke="#3979b3" stroke-width="2"/><text x="605" y="675" text-anchor="middle" font-size="16" font-weight="600" fill="white">InputRevision</text><rect x="997" y="646" width="166" height="48" rx="1" fill="#5c95cd" stroke="#3979b3" stroke-width="2"/><text x="1080" y="675" text-anchor="middle" font-size="16" font-weight="600" fill="white">SpecialistFinding</text><rect x="1557" y="246" width="166" height="48" rx="1" fill="#5c95cd" stroke="#3979b3" stroke-width="2"/><text x="1640" y="275" text-anchor="middle" font-size="16" font-weight="600" fill="white">Proposal</text><rect x="2032" y="246" width="166" height="48" rx="1" fill="#5c95cd" stroke="#3979b3" stroke-width="2"/><text x="2115" y="275" text-anchor="middle" font-size="16" font-weight="600" fill="white">ProposalRevision</text><rect x="2507" y="246" width="166" height="48" rx="1" fill="#5c95cd" stroke="#3979b3" stroke-width="2"/><text x="2590" y="275" text-anchor="middle" font-size="16" font-weight="600" fill="white">ProposalInput</text><rect x="1557" y="646" width="166" height="48" rx="1" fill="#5c95cd" stroke="#3979b3" stroke-width="2"/><text x="1640" y="675" text-anchor="middle" font-size="16" font-weight="600" fill="white">CriticReview</text><rect x="2032" y="646" width="166" height="48" rx="1" fill="#5c95cd" stroke="#3979b3" stroke-width="2"/><text x="2115" y="675" text-anchor="middle" font-size="16" font-weight="600" fill="white">EvidenceItem</text><rect x="2507" y="646" width="166" height="48" rx="1" fill="#5c95cd" stroke="#3979b3" stroke-width="2"/><text x="2590" y="675" text-anchor="middle" font-size="16" font-weight="600" fill="white">ProposalEvidence</text><rect x="47" y="1346" width="166" height="48" rx="1" fill="#5c95cd" stroke="#3979b3" stroke-width="2"/><text x="130" y="1375" text-anchor="middle" font-size="16" font-weight="600" fill="white">PhysicianAction</text><rect x="522" y="1346" width="166" height="48" rx="1" fill="#5c95cd" stroke="#3979b3" stroke-width="2"/><text x="605" y="1375" text-anchor="middle" font-size="16" font-weight="600" fill="white">ClinicalDecision</text><rect x="997" y="1346" width="166" height="48" rx="1" fill="#5c95cd" stroke="#3979b3" stroke-width="2"/><text x="1080" y="1375" text-anchor="middle" font-size="16" font-weight="600" fill="white">SemanticMemory</text><rect x="1557" y="1346" width="166" height="48" rx="1" fill="#5c95cd" stroke="#3979b3" stroke-width="2"/><text x="1640" y="1375" text-anchor="middle" font-size="16" font-weight="600" fill="white">EvaluationCase</text><rect x="2032" y="1346" width="166" height="48" rx="1" fill="#5c95cd" stroke="#3979b3" stroke-width="2"/><text x="2115" y="1375" text-anchor="middle" font-size="16" font-weight="600" fill="white">EvaluationRun</text><rect x="2507" y="1346" width="166" height="48" rx="1" fill="#5c95cd" stroke="#3979b3" stroke-width="2"/><text x="2590" y="1375" text-anchor="middle" font-size="16" font-weight="600" fill="white">EvaluationOutput</text><path d="M213,270 L277,194" stroke="#b2c4b9" stroke-width="1.2" fill="none"/><ellipse cx="377" cy="194" rx="105" ry="16" fill="#d9efde" stroke="#83b995" stroke-width="1.5"/><text x="377" y="198" text-anchor="middle" font-size="13" fill="#254b36" text-decoration="underline">physician_id</text><path d="M213,270 L277,232" stroke="#b2c4b9" stroke-width="1.2" fill="none"/><ellipse cx="377" cy="232" rx="105" ry="16" fill="#d9efde" stroke="#83b995" stroke-width="1.5"/><text x="377" y="236" text-anchor="middle" font-size="13" fill="#254b36">full_name</text><path d="M213,270 L277,270" stroke="#b2c4b9" stroke-width="1.2" fill="none"/><ellipse cx="377" cy="270" rx="105" ry="16" fill="#d9efde" stroke="#83b995" stroke-width="1.5"/><text x="377" y="274" text-anchor="middle" font-size="13" fill="#254b36">email</text><path d="M213,270 L277,308" stroke="#b2c4b9" stroke-width="1.2" fill="none"/><ellipse cx="377" cy="308" rx="105" ry="16" fill="#d9efde" stroke="#83b995" stroke-width="1.5"/><text x="377" y="312" text-anchor="middle" font-size="13" fill="#254b36">password_hash</text><path d="M213,270 L277,346" stroke="#b2c4b9" stroke-width="1.2" fill="none"/><ellipse cx="377" cy="346" rx="105" ry="16" fill="#d9efde" stroke="#83b995" stroke-width="1.5"/><text x="377" y="350" text-anchor="middle" font-size="13" fill="#254b36">created_at</text><path d="M688,270 L752,213" stroke="#b2c4b9" stroke-width="1.2" fill="none"/><ellipse cx="852" cy="213" rx="105" ry="16" fill="#d9efde" stroke="#83b995" stroke-width="1.5"/><text x="852" y="217" text-anchor="middle" font-size="13" fill="#254b36" text-decoration="underline">patient_id</text><path d="M688,270 L752,251" stroke="#b2c4b9" stroke-width="1.2" fill="none"/><ellipse cx="852" cy="251" rx="105" ry="16" fill="#d9efde" stroke="#83b995" stroke-width="1.5"/><text x="852" y="255" text-anchor="middle" font-size="13" fill="#254b36">physician_id (FK)</text><path d="M688,270 L752,289" stroke="#b2c4b9" stroke-width="1.2" fill="none"/><ellipse cx="852" cy="289" rx="105" ry="16" fill="#d9efde" stroke="#83b995" stroke-width="1.5"/><text x="852" y="293" text-anchor="middle" font-size="13" fill="#254b36">patient_ref</text><path d="M688,270 L752,327" stroke="#b2c4b9" stroke-width="1.2" fill="none"/><ellipse cx="852" cy="327" rx="105" ry="16" fill="#d9efde" stroke="#83b995" stroke-width="1.5"/><text x="852" y="331" text-anchor="middle" font-size="13" fill="#254b36">context_text</text><path d="M1163,270 L1227,232" stroke="#b2c4b9" stroke-width="1.2" fill="none"/><ellipse cx="1327" cy="232" rx="105" ry="16" fill="#d9efde" stroke="#83b995" stroke-width="1.5"/><text x="1327" y="236" text-anchor="middle" font-size="13" fill="#254b36" text-decoration="underline">encounter_id</text><path d="M1163,270 L1227,270" stroke="#b2c4b9" stroke-width="1.2" fill="none"/><ellipse cx="1327" cy="270" rx="105" ry="16" fill="#d9efde" stroke="#83b995" stroke-width="1.5"/><text x="1327" y="274" text-anchor="middle" font-size="13" fill="#254b36">patient_id (FK)</text><path d="M1163,270 L1227,308" stroke="#b2c4b9" stroke-width="1.2" fill="none"/><ellipse cx="1327" cy="308" rx="105" ry="16" fill="#d9efde" stroke="#83b995" stroke-width="1.5"/><text x="1327" y="312" text-anchor="middle" font-size="13" fill="#254b36">recorded_at</text><path d="M213,670 L277,632" stroke="#b2c4b9" stroke-width="1.2" fill="none"/><ellipse cx="377" cy="632" rx="105" ry="16" fill="#d9efde" stroke="#83b995" stroke-width="1.5"/><text x="377" y="636" text-anchor="middle" font-size="13" fill="#254b36" text-decoration="underline">input_id</text><path d="M213,670 L277,670" stroke="#b2c4b9" stroke-width="1.2" fill="none"/><ellipse cx="377" cy="670" rx="105" ry="16" fill="#d9efde" stroke="#83b995" stroke-width="1.5"/><text x="377" y="674" text-anchor="middle" font-size="13" fill="#254b36">encounter_id (FK)</text><path d="M213,670 L277,708" stroke="#b2c4b9" stroke-width="1.2" fill="none"/><ellipse cx="377" cy="708" rx="105" ry="16" fill="#d9efde" stroke="#83b995" stroke-width="1.5"/><text x="377" y="712" text-anchor="middle" font-size="13" fill="#254b36">input_kind</text><path d="M688,670 L752,594" stroke="#b2c4b9" stroke-width="1.2" fill="none"/><ellipse cx="852" cy="594" rx="105" ry="16" fill="#d9efde" stroke="#83b995" stroke-width="1.5"/><text x="852" y="598" text-anchor="middle" font-size="13" fill="#254b36" text-decoration="underline">input_id (FK)</text><path d="M688,670 L752,632" stroke="#b2c4b9" stroke-width="1.2" fill="none"/><ellipse cx="852" cy="632" rx="105" ry="16" fill="#d9efde" stroke="#83b995" stroke-width="1.5"/><text x="852" y="636" text-anchor="middle" font-size="13" fill="#254b36" text-decoration="underline">revision_no</text><path d="M688,670 L752,670" stroke="#b2c4b9" stroke-width="1.2" fill="none"/><ellipse cx="852" cy="670" rx="105" ry="16" fill="#d9efde" stroke="#83b995" stroke-width="1.5"/><text x="852" y="674" text-anchor="middle" font-size="13" fill="#254b36">content_text</text><path d="M688,670 L752,708" stroke="#b2c4b9" stroke-width="1.2" fill="none"/><ellipse cx="852" cy="708" rx="105" ry="16" fill="#d9efde" stroke="#83b995" stroke-width="1.5"/><text x="852" y="712" text-anchor="middle" font-size="13" fill="#254b36">file_ref</text><path d="M688,670 L752,746" stroke="#b2c4b9" stroke-width="1.2" fill="none"/><ellipse cx="852" cy="746" rx="105" ry="16" fill="#d9efde" stroke="#83b995" stroke-width="1.5"/><text x="852" y="750" text-anchor="middle" font-size="13" fill="#254b36">recorded_at</text><path d="M1163,670 L1227,537" stroke="#b2c4b9" stroke-width="1.2" fill="none"/><ellipse cx="1327" cy="537" rx="105" ry="16" fill="#d9efde" stroke="#83b995" stroke-width="1.5"/><text x="1327" y="541" text-anchor="middle" font-size="13" fill="#254b36" text-decoration="underline">finding_id</text><path d="M1163,670 L1227,575" stroke="#b2c4b9" stroke-width="1.2" fill="none"/><ellipse cx="1327" cy="575" rx="105" ry="16" fill="#d9efde" stroke="#83b995" stroke-width="1.5"/><text x="1327" y="579" text-anchor="middle" font-size="13" fill="#254b36">input_id (FK)</text><path d="M1163,670 L1227,613" stroke="#b2c4b9" stroke-width="1.2" fill="none"/><ellipse cx="1327" cy="613" rx="105" ry="16" fill="#d9efde" stroke="#83b995" stroke-width="1.5"/><text x="1327" y="617" text-anchor="middle" font-size="13" fill="#254b36">input_revision (FK)</text><path d="M1163,670 L1227,651" stroke="#b2c4b9" stroke-width="1.2" fill="none"/><ellipse cx="1327" cy="651" rx="105" ry="16" fill="#d9efde" stroke="#83b995" stroke-width="1.5"/><text x="1327" y="655" text-anchor="middle" font-size="13" fill="#254b36">agent_kind</text><path d="M1163,670 L1227,689" stroke="#b2c4b9" stroke-width="1.2" fill="none"/><ellipse cx="1327" cy="689" rx="105" ry="16" fill="#d9efde" stroke="#83b995" stroke-width="1.5"/><text x="1327" y="693" text-anchor="middle" font-size="13" fill="#254b36">model_ref</text><path d="M1163,670 L1227,727" stroke="#b2c4b9" stroke-width="1.2" fill="none"/><ellipse cx="1327" cy="727" rx="105" ry="16" fill="#d9efde" stroke="#83b995" stroke-width="1.5"/><text x="1327" y="731" text-anchor="middle" font-size="13" fill="#254b36">finding_text</text><path d="M1163,670 L1227,765" stroke="#b2c4b9" stroke-width="1.2" fill="none"/><ellipse cx="1327" cy="765" rx="105" ry="16" fill="#d9efde" stroke="#83b995" stroke-width="1.5"/><text x="1327" y="769" text-anchor="middle" font-size="13" fill="#254b36">processing_status</text><path d="M1163,670 L1227,803" stroke="#b2c4b9" stroke-width="1.2" fill="none"/><ellipse cx="1327" cy="803" rx="105" ry="16" fill="#d9efde" stroke="#83b995" stroke-width="1.5"/><text x="1327" y="807" text-anchor="middle" font-size="13" fill="#254b36">processed_at</text><path d="M1723,270 L1787,232" stroke="#b2c4b9" stroke-width="1.2" fill="none"/><ellipse cx="1887" cy="232" rx="105" ry="16" fill="#d9efde" stroke="#83b995" stroke-width="1.5"/><text x="1887" y="236" text-anchor="middle" font-size="13" fill="#254b36" text-decoration="underline">proposal_id</text><path d="M1723,270 L1787,270" stroke="#b2c4b9" stroke-width="1.2" fill="none"/><ellipse cx="1887" cy="270" rx="105" ry="16" fill="#d9efde" stroke="#83b995" stroke-width="1.5"/><text x="1887" y="274" text-anchor="middle" font-size="13" fill="#254b36">encounter_id (FK)</text><path d="M1723,270 L1787,308" stroke="#b2c4b9" stroke-width="1.2" fill="none"/><ellipse cx="1887" cy="308" rx="105" ry="16" fill="#d9efde" stroke="#83b995" stroke-width="1.5"/><text x="1887" y="312" text-anchor="middle" font-size="13" fill="#254b36">created_at</text><path d="M2198,270 L2262,175" stroke="#b2c4b9" stroke-width="1.2" fill="none"/><ellipse cx="2362" cy="175" rx="105" ry="16" fill="#d9efde" stroke="#83b995" stroke-width="1.5"/><text x="2362" y="179" text-anchor="middle" font-size="13" fill="#254b36" text-decoration="underline">proposal_id (FK)</text><path d="M2198,270 L2262,213" stroke="#b2c4b9" stroke-width="1.2" fill="none"/><ellipse cx="2362" cy="213" rx="105" ry="16" fill="#d9efde" stroke="#83b995" stroke-width="1.5"/><text x="2362" y="217" text-anchor="middle" font-size="13" fill="#254b36" text-decoration="underline">revision_no</text><path d="M2198,270 L2262,251" stroke="#b2c4b9" stroke-width="1.2" fill="none"/><ellipse cx="2362" cy="251" rx="105" ry="16" fill="#d9efde" stroke="#83b995" stroke-width="1.5"/><text x="2362" y="255" text-anchor="middle" font-size="13" fill="#254b36">diagnosis_text</text><path d="M2198,270 L2262,289" stroke="#b2c4b9" stroke-width="1.2" fill="none"/><ellipse cx="2362" cy="289" rx="105" ry="16" fill="#d9efde" stroke="#83b995" stroke-width="1.5"/><text x="2362" y="293" text-anchor="middle" font-size="13" fill="#254b36">treatment_text</text><path d="M2198,270 L2262,327" stroke="#b2c4b9" stroke-width="1.2" fill="none"/><ellipse cx="2362" cy="327" rx="105" ry="16" fill="#d9efde" stroke="#83b995" stroke-width="1.5"/><text x="2362" y="331" text-anchor="middle" font-size="13" fill="#254b36">review_status</text><path d="M2198,270 L2262,365" stroke="#b2c4b9" stroke-width="1.2" fill="none"/><ellipse cx="2362" cy="365" rx="105" ry="16" fill="#d9efde" stroke="#83b995" stroke-width="1.5"/><text x="2362" y="369" text-anchor="middle" font-size="13" fill="#254b36">created_at</text><path d="M2673,270 L2737,213" stroke="#b2c4b9" stroke-width="1.2" fill="none"/><ellipse cx="2837" cy="213" rx="105" ry="16" fill="#d9efde" stroke="#83b995" stroke-width="1.5"/><text x="2837" y="217" text-anchor="middle" font-size="13" fill="#254b36" text-decoration="underline">proposal_id (FK)</text><path d="M2673,270 L2737,251" stroke="#b2c4b9" stroke-width="1.2" fill="none"/><ellipse cx="2837" cy="251" rx="105" ry="16" fill="#d9efde" stroke="#83b995" stroke-width="1.5"/><text x="2837" y="255" text-anchor="middle" font-size="13" fill="#254b36" text-decoration="underline">proposal_revision (FK)</text><path d="M2673,270 L2737,289" stroke="#b2c4b9" stroke-width="1.2" fill="none"/><ellipse cx="2837" cy="289" rx="105" ry="16" fill="#d9efde" stroke="#83b995" stroke-width="1.5"/><text x="2837" y="293" text-anchor="middle" font-size="13" fill="#254b36" text-decoration="underline">input_id (FK)</text><path d="M2673,270 L2737,327" stroke="#b2c4b9" stroke-width="1.2" fill="none"/><ellipse cx="2837" cy="327" rx="105" ry="16" fill="#d9efde" stroke="#83b995" stroke-width="1.5"/><text x="2837" y="331" text-anchor="middle" font-size="13" fill="#254b36" text-decoration="underline">input_revision (FK)</text><path d="M1723,670 L1787,575" stroke="#b2c4b9" stroke-width="1.2" fill="none"/><ellipse cx="1887" cy="575" rx="105" ry="16" fill="#d9efde" stroke="#83b995" stroke-width="1.5"/><text x="1887" y="579" text-anchor="middle" font-size="13" fill="#254b36" text-decoration="underline">critic_id</text><path d="M1723,670 L1787,613" stroke="#b2c4b9" stroke-width="1.2" fill="none"/><ellipse cx="1887" cy="613" rx="105" ry="16" fill="#d9efde" stroke="#83b995" stroke-width="1.5"/><text x="1887" y="617" text-anchor="middle" font-size="13" fill="#254b36">proposal_id (FK)</text><path d="M1723,670 L1787,651" stroke="#b2c4b9" stroke-width="1.2" fill="none"/><ellipse cx="1887" cy="651" rx="105" ry="16" fill="#d9efde" stroke="#83b995" stroke-width="1.5"/><text x="1887" y="655" text-anchor="middle" font-size="13" fill="#254b36">proposal_revision (FK)</text><path d="M1723,670 L1787,689" stroke="#b2c4b9" stroke-width="1.2" fill="none"/><ellipse cx="1887" cy="689" rx="105" ry="16" fill="#d9efde" stroke="#83b995" stroke-width="1.5"/><text x="1887" y="693" text-anchor="middle" font-size="13" fill="#254b36">review_status</text><path d="M1723,670 L1787,727" stroke="#b2c4b9" stroke-width="1.2" fill="none"/><ellipse cx="1887" cy="727" rx="105" ry="16" fill="#d9efde" stroke="#83b995" stroke-width="1.5"/><text x="1887" y="731" text-anchor="middle" font-size="13" fill="#254b36">findings_text</text><path d="M1723,670 L1787,765" stroke="#b2c4b9" stroke-width="1.2" fill="none"/><ellipse cx="1887" cy="765" rx="105" ry="16" fill="#d9efde" stroke="#83b995" stroke-width="1.5"/><text x="1887" y="769" text-anchor="middle" font-size="13" fill="#254b36">reviewed_at</text><path d="M2198,670 L2262,613" stroke="#b2c4b9" stroke-width="1.2" fill="none"/><ellipse cx="2362" cy="613" rx="105" ry="16" fill="#d9efde" stroke="#83b995" stroke-width="1.5"/><text x="2362" y="617" text-anchor="middle" font-size="13" fill="#254b36" text-decoration="underline">evidence_id</text><path d="M2198,670 L2262,651" stroke="#b2c4b9" stroke-width="1.2" fill="none"/><ellipse cx="2362" cy="651" rx="105" ry="16" fill="#d9efde" stroke="#83b995" stroke-width="1.5"/><text x="2362" y="655" text-anchor="middle" font-size="13" fill="#254b36">source_ref</text><path d="M2198,670 L2262,689" stroke="#b2c4b9" stroke-width="1.2" fill="none"/><ellipse cx="2362" cy="689" rx="105" ry="16" fill="#d9efde" stroke="#83b995" stroke-width="1.5"/><text x="2362" y="693" text-anchor="middle" font-size="13" fill="#254b36">passage_text</text><path d="M2198,670 L2262,727" stroke="#b2c4b9" stroke-width="1.2" fill="none"/><ellipse cx="2362" cy="727" rx="105" ry="16" fill="#d9efde" stroke="#83b995" stroke-width="1.5"/><text x="2362" y="731" text-anchor="middle" font-size="13" fill="#254b36">retrieved_at</text><path d="M2673,670 L2737,632" stroke="#b2c4b9" stroke-width="1.2" fill="none"/><ellipse cx="2837" cy="632" rx="105" ry="16" fill="#d9efde" stroke="#83b995" stroke-width="1.5"/><text x="2837" y="636" text-anchor="middle" font-size="13" fill="#254b36" text-decoration="underline">proposal_id (FK)</text><path d="M2673,670 L2737,670" stroke="#b2c4b9" stroke-width="1.2" fill="none"/><ellipse cx="2837" cy="670" rx="105" ry="16" fill="#d9efde" stroke="#83b995" stroke-width="1.5"/><text x="2837" y="674" text-anchor="middle" font-size="13" fill="#254b36" text-decoration="underline">proposal_revision (FK)</text><path d="M2673,670 L2737,708" stroke="#b2c4b9" stroke-width="1.2" fill="none"/><ellipse cx="2837" cy="708" rx="105" ry="16" fill="#d9efde" stroke="#83b995" stroke-width="1.5"/><text x="2837" y="712" text-anchor="middle" font-size="13" fill="#254b36" text-decoration="underline">evidence_id (FK)</text><path d="M213,1370 L277,1256" stroke="#b2c4b9" stroke-width="1.2" fill="none"/><ellipse cx="377" cy="1256" rx="105" ry="16" fill="#d9efde" stroke="#83b995" stroke-width="1.5"/><text x="377" y="1260" text-anchor="middle" font-size="13" fill="#254b36" text-decoration="underline">action_id</text><path d="M213,1370 L277,1294" stroke="#b2c4b9" stroke-width="1.2" fill="none"/><ellipse cx="377" cy="1294" rx="105" ry="16" fill="#d9efde" stroke="#83b995" stroke-width="1.5"/><text x="377" y="1298" text-anchor="middle" font-size="13" fill="#254b36">proposal_id (FK)</text><path d="M213,1370 L277,1332" stroke="#b2c4b9" stroke-width="1.2" fill="none"/><ellipse cx="377" cy="1332" rx="105" ry="16" fill="#d9efde" stroke="#83b995" stroke-width="1.5"/><text x="377" y="1336" text-anchor="middle" font-size="13" fill="#254b36">proposal_revision (FK)</text><path d="M213,1370 L277,1370" stroke="#b2c4b9" stroke-width="1.2" fill="none"/><ellipse cx="377" cy="1370" rx="105" ry="16" fill="#d9efde" stroke="#83b995" stroke-width="1.5"/><text x="377" y="1374" text-anchor="middle" font-size="13" fill="#254b36">physician_id (FK)</text><path d="M213,1370 L277,1408" stroke="#b2c4b9" stroke-width="1.2" fill="none"/><ellipse cx="377" cy="1408" rx="105" ry="16" fill="#d9efde" stroke="#83b995" stroke-width="1.5"/><text x="377" y="1412" text-anchor="middle" font-size="13" fill="#254b36">action_kind</text><path d="M213,1370 L277,1446" stroke="#b2c4b9" stroke-width="1.2" fill="none"/><ellipse cx="377" cy="1446" rx="105" ry="16" fill="#d9efde" stroke="#83b995" stroke-width="1.5"/><text x="377" y="1450" text-anchor="middle" font-size="13" fill="#254b36">reviewed_text</text><path d="M213,1370 L277,1484" stroke="#b2c4b9" stroke-width="1.2" fill="none"/><ellipse cx="377" cy="1484" rx="105" ry="16" fill="#d9efde" stroke="#83b995" stroke-width="1.5"/><text x="377" y="1488" text-anchor="middle" font-size="13" fill="#254b36">action_at</text><path d="M688,1370 L752,1275" stroke="#b2c4b9" stroke-width="1.2" fill="none"/><ellipse cx="852" cy="1275" rx="105" ry="16" fill="#d9efde" stroke="#83b995" stroke-width="1.5"/><text x="852" y="1279" text-anchor="middle" font-size="13" fill="#254b36" text-decoration="underline">decision_id</text><path d="M688,1370 L752,1313" stroke="#b2c4b9" stroke-width="1.2" fill="none"/><ellipse cx="852" cy="1313" rx="105" ry="16" fill="#d9efde" stroke="#83b995" stroke-width="1.5"/><text x="852" y="1317" text-anchor="middle" font-size="13" fill="#254b36">proposal_id (FK)</text><path d="M688,1370 L752,1351" stroke="#b2c4b9" stroke-width="1.2" fill="none"/><ellipse cx="852" cy="1351" rx="105" ry="16" fill="#d9efde" stroke="#83b995" stroke-width="1.5"/><text x="852" y="1355" text-anchor="middle" font-size="13" fill="#254b36">approved_revision (FK)</text><path d="M688,1370 L752,1389" stroke="#b2c4b9" stroke-width="1.2" fill="none"/><ellipse cx="852" cy="1389" rx="105" ry="16" fill="#d9efde" stroke="#83b995" stroke-width="1.5"/><text x="852" y="1393" text-anchor="middle" font-size="13" fill="#254b36">approval_action_id (FK)</text><path d="M688,1370 L752,1427" stroke="#b2c4b9" stroke-width="1.2" fill="none"/><ellipse cx="852" cy="1427" rx="105" ry="16" fill="#d9efde" stroke="#83b995" stroke-width="1.5"/><text x="852" y="1431" text-anchor="middle" font-size="13" fill="#254b36">decision_text</text><path d="M688,1370 L752,1465" stroke="#b2c4b9" stroke-width="1.2" fill="none"/><ellipse cx="852" cy="1465" rx="105" ry="16" fill="#d9efde" stroke="#83b995" stroke-width="1.5"/><text x="852" y="1469" text-anchor="middle" font-size="13" fill="#254b36">recorded_at</text><path d="M1163,1370 L1227,1256" stroke="#b2c4b9" stroke-width="1.2" fill="none"/><ellipse cx="1327" cy="1256" rx="105" ry="16" fill="#d9efde" stroke="#83b995" stroke-width="1.5"/><text x="1327" y="1260" text-anchor="middle" font-size="13" fill="#254b36" text-decoration="underline">memory_id</text><path d="M1163,1370 L1227,1294" stroke="#b2c4b9" stroke-width="1.2" fill="none"/><ellipse cx="1327" cy="1294" rx="105" ry="16" fill="#d9efde" stroke="#83b995" stroke-width="1.5"/><text x="1327" y="1298" text-anchor="middle" font-size="13" fill="#254b36">input_id (FK)</text><path d="M1163,1370 L1227,1332" stroke="#b2c4b9" stroke-width="1.2" fill="none"/><ellipse cx="1327" cy="1332" rx="105" ry="16" fill="#d9efde" stroke="#83b995" stroke-width="1.5"/><text x="1327" y="1336" text-anchor="middle" font-size="13" fill="#254b36">input_revision (FK)</text><path d="M1163,1370 L1227,1370" stroke="#b2c4b9" stroke-width="1.2" fill="none"/><ellipse cx="1327" cy="1370" rx="105" ry="16" fill="#d9efde" stroke="#83b995" stroke-width="1.5"/><text x="1327" y="1374" text-anchor="middle" font-size="13" fill="#254b36">decision_id (FK)</text><path d="M1163,1370 L1227,1408" stroke="#b2c4b9" stroke-width="1.2" fill="none"/><ellipse cx="1327" cy="1408" rx="105" ry="16" fill="#d9efde" stroke="#83b995" stroke-width="1.5"/><text x="1327" y="1412" text-anchor="middle" font-size="13" fill="#254b36">embedding</text><path d="M1163,1370 L1227,1446" stroke="#b2c4b9" stroke-width="1.2" fill="none"/><ellipse cx="1327" cy="1446" rx="105" ry="16" fill="#d9efde" stroke="#83b995" stroke-width="1.5"/><text x="1327" y="1450" text-anchor="middle" font-size="13" fill="#254b36">model_ref</text><path d="M1163,1370 L1227,1484" stroke="#b2c4b9" stroke-width="1.2" fill="none"/><ellipse cx="1327" cy="1484" rx="105" ry="16" fill="#d9efde" stroke="#83b995" stroke-width="1.5"/><text x="1327" y="1488" text-anchor="middle" font-size="13" fill="#254b36">indexed_at</text><path d="M1723,1370 L1787,1313" stroke="#b2c4b9" stroke-width="1.2" fill="none"/><ellipse cx="1887" cy="1313" rx="105" ry="16" fill="#d9efde" stroke="#83b995" stroke-width="1.5"/><text x="1887" y="1317" text-anchor="middle" font-size="13" fill="#254b36" text-decoration="underline">case_id</text><path d="M1723,1370 L1787,1351" stroke="#b2c4b9" stroke-width="1.2" fill="none"/><ellipse cx="1887" cy="1351" rx="105" ry="16" fill="#d9efde" stroke="#83b995" stroke-width="1.5"/><text x="1887" y="1355" text-anchor="middle" font-size="13" fill="#254b36">encounter_id (FK)</text><path d="M1723,1370 L1787,1389" stroke="#b2c4b9" stroke-width="1.2" fill="none"/><ellipse cx="1887" cy="1389" rx="105" ry="16" fill="#d9efde" stroke="#83b995" stroke-width="1.5"/><text x="1887" y="1393" text-anchor="middle" font-size="13" fill="#254b36">source_ref</text><path d="M1723,1370 L1787,1427" stroke="#b2c4b9" stroke-width="1.2" fill="none"/><ellipse cx="1887" cy="1427" rx="105" ry="16" fill="#d9efde" stroke="#83b995" stroke-width="1.5"/><text x="1887" y="1431" text-anchor="middle" font-size="13" fill="#254b36">reference_text</text><path d="M2198,1370 L2262,1256" stroke="#b2c4b9" stroke-width="1.2" fill="none"/><ellipse cx="2362" cy="1256" rx="105" ry="16" fill="#d9efde" stroke="#83b995" stroke-width="1.5"/><text x="2362" y="1260" text-anchor="middle" font-size="13" fill="#254b36" text-decoration="underline">run_id</text><path d="M2198,1370 L2262,1294" stroke="#b2c4b9" stroke-width="1.2" fill="none"/><ellipse cx="2362" cy="1294" rx="105" ry="16" fill="#d9efde" stroke="#83b995" stroke-width="1.5"/><text x="2362" y="1298" text-anchor="middle" font-size="13" fill="#254b36">variant</text><path d="M2198,1370 L2262,1332" stroke="#b2c4b9" stroke-width="1.2" fill="none"/><ellipse cx="2362" cy="1332" rx="105" ry="16" fill="#d9efde" stroke="#83b995" stroke-width="1.5"/><text x="2362" y="1336" text-anchor="middle" font-size="13" fill="#254b36">critic_enabled</text><path d="M2198,1370 L2262,1370" stroke="#b2c4b9" stroke-width="1.2" fill="none"/><ellipse cx="2362" cy="1370" rx="105" ry="16" fill="#d9efde" stroke="#83b995" stroke-width="1.5"/><text x="2362" y="1374" text-anchor="middle" font-size="13" fill="#254b36">multimodal_enabled</text><path d="M2198,1370 L2262,1408" stroke="#b2c4b9" stroke-width="1.2" fill="none"/><ellipse cx="2362" cy="1408" rx="105" ry="16" fill="#d9efde" stroke="#83b995" stroke-width="1.5"/><text x="2362" y="1412" text-anchor="middle" font-size="13" fill="#254b36">configuration</text><path d="M2198,1370 L2262,1446" stroke="#b2c4b9" stroke-width="1.2" fill="none"/><ellipse cx="2362" cy="1446" rx="105" ry="16" fill="#d9efde" stroke="#83b995" stroke-width="1.5"/><text x="2362" y="1450" text-anchor="middle" font-size="13" fill="#254b36">run_status</text><path d="M2198,1370 L2262,1484" stroke="#b2c4b9" stroke-width="1.2" fill="none"/><ellipse cx="2362" cy="1484" rx="105" ry="16" fill="#d9efde" stroke="#83b995" stroke-width="1.5"/><text x="2362" y="1488" text-anchor="middle" font-size="13" fill="#254b36">started_at</text><path d="M2673,1370 L2737,1275" stroke="#b2c4b9" stroke-width="1.2" fill="none"/><ellipse cx="2837" cy="1275" rx="105" ry="16" fill="#d9efde" stroke="#83b995" stroke-width="1.5"/><text x="2837" y="1279" text-anchor="middle" font-size="13" fill="#254b36" text-decoration="underline">output_id</text><path d="M2673,1370 L2737,1313" stroke="#b2c4b9" stroke-width="1.2" fill="none"/><ellipse cx="2837" cy="1313" rx="105" ry="16" fill="#d9efde" stroke="#83b995" stroke-width="1.5"/><text x="2837" y="1317" text-anchor="middle" font-size="13" fill="#254b36">run_id (FK)</text><path d="M2673,1370 L2737,1351" stroke="#b2c4b9" stroke-width="1.2" fill="none"/><ellipse cx="2837" cy="1351" rx="105" ry="16" fill="#d9efde" stroke="#83b995" stroke-width="1.5"/><text x="2837" y="1355" text-anchor="middle" font-size="13" fill="#254b36">case_id (FK)</text><path d="M2673,1370 L2737,1389" stroke="#b2c4b9" stroke-width="1.2" fill="none"/><ellipse cx="2837" cy="1389" rx="105" ry="16" fill="#d9efde" stroke="#83b995" stroke-width="1.5"/><text x="2837" y="1393" text-anchor="middle" font-size="13" fill="#254b36">output_text</text><path d="M2673,1370 L2737,1427" stroke="#b2c4b9" stroke-width="1.2" fill="none"/><ellipse cx="2837" cy="1427" rx="105" ry="16" fill="#d9efde" stroke="#83b995" stroke-width="1.5"/><text x="2837" y="1431" text-anchor="middle" font-size="13" fill="#254b36">output_status</text><path d="M2673,1370 L2737,1465" stroke="#b2c4b9" stroke-width="1.2" fill="none"/><ellipse cx="2837" cy="1465" rx="105" ry="16" fill="#d9efde" stroke="#83b995" stroke-width="1.5"/><text x="2837" y="1469" text-anchor="middle" font-size="13" fill="#254b36">elapsed_ms</text></svg>